<?xml version="1.0" encoding="utf-8"?>
<!-- Generator: Adobe Illustrator 24.1.2, SVG Export Plug-In . SVG Version: 6.00 Build 0)  -->
<svg version="1.1" xmlns="http://www.w3.org/2000/svg" xmlns:xlink="http://www.w3.org/1999/xlink" x="0px" y="0px"
	 viewBox="0 0 367.4 118.7" style="enable-background:new 0 0 367.4 118.7;" xml:space="preserve">
<style type="text/css">
	.st0{opacity:0.8;}
	.st1{fill:#333333;}
	.st2{fill:#00AFD7;}
	.st3{fill:#E4002B;}
	.st4{fill:none;stroke:#2E3192;stroke-width:5;stroke-miterlimit:10;}
	.st5{fill:#006DB6;}
	.st6{fill:#FF5000;}
	.st7{fill:#F5BE3D;}
	.st8{fill:#F39B3B;}
	.st9{fill:#FFFFFF;stroke:#231F20;stroke-width:5;stroke-miterlimit:10;}
</style>
<g id="Layer_2">
	<g>
		<path d="M145.6,40.4c0,7.8-5.2,11.9-12.6,11.9h-9.9v14.2h-5.6v-38h15.9C140.4,28.5,145.6,32.5,145.6,40.4z M139.8,40.4
			c0-4.2-2.5-6.5-6.5-6.5h-10.2v13.1h10.2C137.6,46.9,139.8,44.4,139.8,40.4z"/>
		<path d="M180.3,66.4h-6.1l-3.2-9h-15.2l-3.1,9h-5.9l13.7-38h6L180.3,66.4z M169.3,52.3l-3-8.7c-0.9-2.7-2.4-7.1-2.9-8.7
			c-0.4,1.6-1.8,6-2.8,8.8l-3,8.7H169.3z"/>
		<path d="M208.3,34.1h-11.1v32.4h-5.7V34.1h-11.1v-5.6h27.8V34.1z"/>
		<path d="M241.2,34.1h-11.1v32.4h-5.7V34.1h-11.1v-5.6h27.8V34.1z"/>
		<path d="M274,66.4h-25.3v-38h24.5V34h-18.8v9.4h10.9v5.5h-10.9v12H274V66.4z"/>
		<path d="M310.9,39.8c0,6.1-3.2,9.8-8.4,11.1l7.8,15.5h-6.6l-7.5-15h-8.6v15h-5.6v-38h16.6C305.3,28.5,310.9,32,310.9,39.8z
			 M305.2,40c0-4-2.6-6.1-6.5-6.1h-11.1V46h11.1C302.5,46,305.2,44.1,305.2,40z"/>
		<path d="M348.6,66.4h-5.4L328,42.6c-0.9-1.4-2.2-3.7-2.8-4.7c0,1.4,0.1,6.7,0.1,8.8v19.7h-5.5v-38h5.8l14.4,23.2
			c1,1.6,2.6,4.4,3.1,5.4c0-1.4-0.1-6.8-0.1-8.9V28.5h5.5V66.4z"/>
	</g>
	<g class="st0">
		<path class="st1" d="M125.6,86.5c0,2.4-1.5,4-4.8,4c-1.9,0-3.5-0.8-4.6-2.1l1.4-1.4c0.9,1,2.2,1.5,3.4,1.5c1.8,0,2.7-0.6,2.7-1.9
			c0-1-0.8-1.5-2.9-2.2c-2.8-0.8-4.1-1.5-4.1-3.8c0-2.3,1.9-3.6,4.3-3.6c1.8,0,3.1,0.7,4.3,1.8l-1.4,1.4c-0.8-0.8-1.8-1.3-3-1.3
			c-1.5,0-2.2,0.7-2.2,1.6c0,0.9,0.6,1.4,2.9,2C124,83.3,125.6,84.2,125.6,86.5z"/>
		<path class="st1" d="M137.4,90.2h-8.7V77.2h8.4v1.9h-6.5v3.2h3.8v1.9h-3.8v4.1h6.7V90.2z"/>
		<path class="st1" d="M149,90.2h-8.7V77.2h8.4v1.9h-6.5v3.2h3.8v1.9h-3.8v4.1h6.7V90.2z"/>
		<path class="st1" d="M163.9,88.9c-0.5,0.4-1.1,0.7-1.7,1c-0.6,0.3-1.3,0.4-2,0.4c-1.3,0-2.3-0.4-3-1.2c-0.8-0.8-1.2-1.7-1.2-2.9
			c0-1.7,0.9-3,2.5-3.9c-0.3-0.4-0.6-0.8-0.8-1.2c-0.2-0.4-0.3-0.9-0.3-1.3c0-0.8,0.3-1.5,0.8-2.1c0.5-0.6,1.3-0.9,2.2-0.9
			c0.9,0,1.6,0.3,2.2,0.9s0.8,1.3,0.8,2.1c0,1.2-0.7,2.2-2.2,3l2.8,3.4c0.5-0.7,0.9-1.4,1.2-2.2l1.7,0.7c-0.2,0.5-0.4,1-0.7,1.5
			c-0.3,0.5-0.6,1-1,1.4l2.2,2.7h-2.2L163.9,88.9z M159.6,83.7c-1.3,0.8-1.9,1.6-1.9,2.6c0,0.7,0.3,1.3,0.7,1.7
			c0.5,0.5,1,0.7,1.7,0.7c0.9,0,1.8-0.4,2.7-1.2L159.6,83.7z M159.2,79.8c0,0.3,0.1,0.6,0.3,0.8c0.2,0.3,0.4,0.6,0.7,0.9
			c0.6-0.2,1-0.5,1.3-0.8c0.2-0.3,0.3-0.6,0.3-0.9c0-0.4-0.1-0.7-0.4-0.9c-0.2-0.2-0.6-0.4-1-0.4c-0.4,0-0.7,0.1-0.9,0.4
			C159.3,79.1,159.2,79.4,159.2,79.8z"/>
		<path class="st1" d="M184.2,84.8c0,3.7-1.8,5.7-5,5.7c-3.2,0-4.9-2.1-4.9-5.7v-7.6h2v7.5c0,2.5,1,3.8,3,3.8c2.1,0,3-1.3,3-3.7
			v-7.7h2V84.8z"/>
		<path class="st1" d="M197.5,90.2h-1.9l-5.2-8.2c-0.3-0.5-0.8-1.3-1-1.6c0,0.5,0,2.3,0,3v6.8h-1.9V77.2h2l5,8
			c0.3,0.5,0.9,1.5,1.1,1.8c0-0.5,0-2.4,0-3.1v-6.7h1.9V90.2z"/>
		<path class="st1" d="M211,83.7c0,4.6-2.9,6.5-6.4,6.5h-3.6V77.2h3.6C208.1,77.2,211,79.1,211,83.7z M209,83.7
			c0-2.7-1.3-4.6-4.4-4.6H203v9.3h1.6C207.7,88.3,209,86.5,209,83.7z"/>
		<path class="st1" d="M222.5,90.2h-8.7V77.2h8.4v1.9h-6.5v3.2h3.8v1.9h-3.8v4.1h6.7V90.2z"/>
		<path class="st1" d="M235.4,81.1c0,2.1-1.1,3.4-2.9,3.8l2.7,5.3h-2.3l-2.6-5.2h-2.9v5.2h-1.9V77.2h5.7
			C233.4,77.2,235.4,78.4,235.4,81.1z M233.4,81.1c0-1.4-0.9-2.1-2.2-2.1h-3.8v4.2h3.8C232.5,83.2,233.4,82.6,233.4,81.1z"/>
		<path class="st1" d="M247.2,86.5c0,2.4-1.5,4-4.8,4c-1.9,0-3.5-0.8-4.6-2.1l1.4-1.4c0.9,1,2.2,1.5,3.4,1.5c1.8,0,2.7-0.6,2.7-1.9
			c0-1-0.8-1.5-2.9-2.2c-2.8-0.8-4.1-1.5-4.1-3.8c0-2.3,1.9-3.6,4.3-3.6c1.8,0,3.1,0.7,4.3,1.8l-1.4,1.4c-0.8-0.8-1.8-1.3-3-1.3
			c-1.5,0-2.2,0.7-2.2,1.6c0,0.9,0.6,1.4,2.9,2C245.6,83.3,247.2,84.2,247.2,86.5z"/>
		<path class="st1" d="M258.6,79.1h-3.8v11.1h-2V79.1H249v-1.9h9.6V79.1z"/>
		<path class="st1" d="M270.3,90.2h-2.1l-1.1-3.1h-5.2l-1.1,3.1h-2l4.7-13.1h2.1L270.3,90.2z M266.5,85.4l-1-3c-0.3-0.9-0.8-2.4-1-3
			c-0.1,0.6-0.6,2.1-1,3l-1,3H266.5z"/>
		<path class="st1" d="M282.9,90.2H281l-5.2-8.2c-0.3-0.5-0.8-1.3-1-1.6c0,0.5,0,2.3,0,3v6.8H273V77.2h2l5,8
			c0.3,0.5,0.9,1.5,1.1,1.8c0-0.5,0-2.4,0-3.1v-6.7h1.9V90.2z"/>
		<path class="st1" d="M296.3,83.7c0,4.6-2.9,6.5-6.4,6.5h-3.6V77.2h3.6C293.5,77.2,296.3,79.1,296.3,83.7z M294.3,83.7
			c0-2.7-1.3-4.6-4.4-4.6h-1.6v9.3h1.6C293.1,88.3,294.3,86.5,294.3,83.7z"/>
		<path class="st1" d="M314.3,83.7c0,4.6-2.9,6.5-6.4,6.5h-3.6V77.2h3.6C311.4,77.2,314.3,79.1,314.3,83.7z M312.3,83.7
			c0-2.7-1.3-4.6-4.4-4.6h-1.6v9.3h1.6C311,88.3,312.3,86.5,312.3,83.7z"/>
		<path class="st1" d="M327.2,90.2h-2.1l-1.1-3.1h-5.2l-1.1,3.1h-2l4.7-13.1h2.1L327.2,90.2z M323.5,85.4l-1-3c-0.3-0.9-0.8-2.4-1-3
			c-0.1,0.6-0.6,2.1-1,3l-1,3H323.5z"/>
		<path class="st1" d="M337,79.1h-3.8v11.1h-2V79.1h-3.8v-1.9h9.6V79.1z"/>
		<path class="st1" d="M348.7,90.2h-2.1l-1.1-3.1h-5.2l-1.1,3.1h-2l4.7-13.1h2.1L348.7,90.2z M344.9,85.4l-1-3c-0.3-0.9-0.8-2.4-1-3
			c-0.1,0.6-0.6,2.1-1,3l-1,3H344.9z"/>
	</g>
</g>
<g id="Layer_3">
	<path class="st2" d="M48.9,80.9c-1.4,0-2.5-1.1-2.5-2.5s1.1-2.5,2.5-2.5c9.4,0,17-7.6,17-17s-7.6-17-17-17c-1.4,0-2.5-1.1-2.5-2.5
		s1.1-2.5,2.5-2.5c12.2,0,22,9.9,22,22S61,80.9,48.9,80.9z"/>
	<path class="st3" d="M73,48.4c-0.9,0-1.8-0.5-2.2-1.3C66.5,39,58.1,34,48.9,34c-1.4,0-2.5-1.1-2.5-2.5s1.1-2.5,2.5-2.5
		c11,0,21.1,6,26.4,15.8c0.7,1.2,0.2,2.7-1,3.4C73.8,48.3,73.4,48.4,73,48.4z"/>
	<path class="st4" d="M30.8,38.2"/>
	<path class="st5" d="M48.9,88.8C33,88.8,19.7,76.2,19,60.2c-0.4-8.6,3-17,9.2-22.9c1-1,2.6-0.9,3.5,0.1c1,1,0.9,2.6-0.1,3.5
		c-5.2,5-8,11.9-7.7,19.1C24.6,73.7,36.2,84.4,50,83.7c13.7-0.6,24.4-12.2,23.8-25.9c-0.1-1.3-0.2-2.6-0.5-3.8
		c-0.3-1.4,0.6-2.7,2-2.9c1.4-0.3,2.7,0.6,2.9,2c0.3,1.5,0.5,3,0.6,4.6C79.4,74,66.6,88,50.2,88.7C49.7,88.8,49.3,88.8,48.9,88.8z"
		/>
	<path class="st6" d="M48.9,96.6c-19.2,0-35.3-14.4-37.5-33.4c-0.2-1.4,0.8-2.6,2.2-2.8c1.4-0.1,2.6,0.8,2.8,2.2
		c1.9,16.5,15.9,29,32.5,29c18,0,32.7-14.7,32.7-32.7c0-18-14.7-32.7-32.7-32.7c-1.4,0-2.5-1.1-2.5-2.5s1.1-2.5,2.5-2.5
		c20.8,0,37.7,16.9,37.7,37.7C86.6,79.7,69.7,96.6,48.9,96.6z"/>
	<path class="st6" d="M48.9,104.4c-22.6,0-42-16.9-45.1-39.2c-0.2-1.4,0.8-2.6,2.1-2.8c1.4-0.2,2.6,0.8,2.8,2.1
		c2.8,19.9,20.1,34.9,40.2,34.9c22.4,0,40.6-18.2,40.6-40.6S71.2,18.3,48.9,18.3c-1.4,0-2.5-1.1-2.5-2.5s1.1-2.5,2.5-2.5
		c25.1,0,45.6,20.4,45.6,45.6S74,104.4,48.9,104.4z"/>
	<path class="st7" d="M48.9,112.3c-9.4,0-18.7-2.5-26.8-7.2c-1.2-0.7-1.6-2.2-0.9-3.4c0.7-1.2,2.2-1.6,3.4-0.9
		c7.3,4.3,15.7,6.5,24.3,6.5c26.7,0,48.4-21.7,48.4-48.4c0-26.7-21.7-48.4-48.4-48.4c-1.4,0-2.5-1.1-2.5-2.5s1.1-2.5,2.5-2.5
		c29.5,0,53.4,24,53.4,53.4C102.3,88.3,78.3,112.3,48.9,112.3z"/>
	<path class="st8" d="M17.4,101.4c-0.5,0-1.1-0.2-1.5-0.5c-2.7-2.1-5.2-4.5-7.4-7c-0.9-1-0.8-2.6,0.3-3.5c1-0.9,2.6-0.8,3.5,0.3
		c2,2.3,4.3,4.5,6.7,6.4c1.1,0.9,1.3,2.4,0.4,3.5C18.9,101.1,18.2,101.4,17.4,101.4z"/>
	<path class="st9" d="M48.9,59.4"/>
</g>
</svg>
